<mxfile host="app.diagrams.net" modified="2023-10-21T22:49:51.691Z" agent="Mozilla/5.0 (Windows NT 10.0; Win64; x64) AppleWebKit/537.36 (KHTML, like Gecko) Chrome/118.0.0.0 Safari/537.36" etag="_5WkYkhh6cSjjFN5YD2y" version="22.0.6" type="device">
  <diagram name="PÃ¡gina-1" id="BTUdbJtTcB-sQafnarFC">
    <mxGraphModel dx="1050" dy="534" grid="1" gridSize="10" guides="1" tooltips="1" connect="1" arrows="1" fold="1" page="1" pageScale="1" pageWidth="1169" pageHeight="827" background="#ffffff" math="0" shadow="0">
      <root>
        <mxCell id="0" />
        <mxCell id="1" parent="0" visible="0" />
        <object label="imagem" id="txG9URvRlIvG3EIVw_gf-25">
          <mxCell parent="0" />
        </object>
        <mxCell id="txG9URvRlIvG3EIVw_gf-27" style="edgeStyle=orthogonalEdgeStyle;curved=1;html=1;exitX=1;exitY=0.75;exitDx=0;exitDy=0;entryX=0;entryY=0.5;entryDx=0;entryDy=0;strokeWidth=7;fontFamily=Tahoma;fontSize=13;flowAnimation=1;movable=1;resizable=1;rotatable=1;deletable=1;editable=1;locked=0;connectable=1;fillColor=#1ba1e2;strokeColor=#006EAF;" parent="txG9URvRlIvG3EIVw_gf-25" source="txG9URvRlIvG3EIVw_gf-37" target="txG9URvRlIvG3EIVw_gf-35" edge="1">
          <mxGeometry relative="1" as="geometry">
            <mxPoint x="880.0100000000002" y="226.88" as="targetPoint" />
            <mxPoint x="259.21000000000004" y="228.76" as="sourcePoint" />
          </mxGeometry>
        </mxCell>
        <mxCell id="txG9URvRlIvG3EIVw_gf-31" style="edgeStyle=orthogonalEdgeStyle;curved=1;html=1;exitX=1.016;exitY=0.364;exitDx=0;exitDy=0;entryX=0;entryY=0.5;entryDx=0;entryDy=0;strokeWidth=7;fontFamily=Tahoma;fontSize=13;flowAnimation=1;movable=1;resizable=1;rotatable=1;deletable=1;editable=1;locked=0;connectable=1;fillColor=#1ba1e2;strokeColor=#006EAF;exitPerimeter=0;" parent="txG9URvRlIvG3EIVw_gf-25" source="txG9URvRlIvG3EIVw_gf-37" target="txG9URvRlIvG3EIVw_gf-32" edge="1">
          <mxGeometry relative="1" as="geometry">
            <mxPoint x="277.5" y="133.75" as="sourcePoint" />
          </mxGeometry>
        </mxCell>
        <mxCell id="txG9URvRlIvG3EIVw_gf-32" value="" style="whiteSpace=wrap;html=1;aspect=fixed;rounded=0;shadow=1;glass=0;labelBorderColor=none;sketch=0;strokeColor=#1A1A1A;fontFamily=Tahoma;fontSize=13;fillColor=#ffe6cc;movable=1;resizable=1;rotatable=1;deletable=1;editable=1;connectable=1;locked=0;fillStyle=solid;strokeWidth=2;" parent="txG9URvRlIvG3EIVw_gf-25" vertex="1">
          <mxGeometry x="600" y="83.75" width="100" height="100" as="geometry" />
        </mxCell>
        <mxCell id="txG9URvRlIvG3EIVw_gf-35" value="" style="whiteSpace=wrap;html=1;aspect=fixed;rounded=0;shadow=1;glass=0;labelBorderColor=none;sketch=0;strokeColor=#1A1A1A;fontFamily=Tahoma;fontSize=13;fillColor=#ffe6cc;movable=1;resizable=1;rotatable=1;deletable=1;editable=1;connectable=1;locked=0;fillStyle=solid;strokeWidth=2;" parent="txG9URvRlIvG3EIVw_gf-25" vertex="1">
          <mxGeometry x="600" y="240" width="130" height="130" as="geometry" />
        </mxCell>
        <mxCell id="txG9URvRlIvG3EIVw_gf-36" value="" style="triangle;whiteSpace=wrap;html=1;rounded=0;shadow=1;glass=0;labelBorderColor=none;sketch=1;strokeColor=#3700CC;fontFamily=Tahoma;fontSize=13;fillColor=#6a00ff;rotation=-90;fontColor=#ffffff;movable=1;resizable=1;rotatable=1;deletable=1;editable=1;connectable=1;locked=0;curveFitting=1;jiggle=2;" parent="txG9URvRlIvG3EIVw_gf-25" vertex="1">
          <mxGeometry x="621.87" y="103.74999999999999" width="56.25" height="60" as="geometry" />
        </mxCell>
        <mxCell id="txG9URvRlIvG3EIVw_gf-37" value="" style="whiteSpace=wrap;html=1;aspect=fixed;rounded=0;shadow=1;glass=0;labelBorderColor=none;sketch=0;strokeColor=#1A1A1A;fontFamily=Tahoma;fontSize=13;fillColor=#ffe6cc;movable=1;resizable=1;rotatable=1;deletable=1;editable=1;connectable=1;locked=0;fillStyle=solid;strokeWidth=2;" parent="txG9URvRlIvG3EIVw_gf-25" vertex="1">
          <mxGeometry x="270" y="140" width="100" height="100" as="geometry" />
        </mxCell>
        <mxCell id="txG9URvRlIvG3EIVw_gf-33" value="" style="ellipse;whiteSpace=wrap;html=1;aspect=fixed;rounded=0;shadow=1;glass=0;labelBorderColor=none;sketch=1;strokeColor=#B20000;fontFamily=Tahoma;fontSize=13;fillColor=#e51400;fontColor=#ffffff;movable=1;resizable=1;rotatable=1;deletable=1;editable=1;connectable=1;locked=0;curveFitting=1;jiggle=2;" parent="txG9URvRlIvG3EIVw_gf-25" vertex="1">
          <mxGeometry x="290" y="160" width="60" height="60" as="geometry" />
        </mxCell>
        <mxCell id="DNWY6dbjaC5dr_bm-qTc-2" value="" style="triangle;whiteSpace=wrap;html=1;rounded=0;shadow=1;glass=0;labelBorderColor=none;sketch=1;strokeColor=#3700CC;fontFamily=Tahoma;fontSize=13;fillColor=#E51400;rotation=-90;fontColor=#ffffff;movable=1;resizable=1;rotatable=1;deletable=1;editable=1;connectable=1;locked=0;curveFitting=1;jiggle=2;" vertex="1" parent="txG9URvRlIvG3EIVw_gf-25">
          <mxGeometry x="650" y="267" width="56.25" height="60" as="geometry" />
        </mxCell>
        <mxCell id="DNWY6dbjaC5dr_bm-qTc-1" value="" style="ellipse;whiteSpace=wrap;html=1;aspect=fixed;rounded=0;shadow=1;glass=0;labelBorderColor=none;sketch=1;strokeColor=#B20000;fontFamily=Tahoma;fontSize=13;fillColor=#e51400;fontColor=#ffffff;movable=1;resizable=1;rotatable=1;deletable=1;editable=1;connectable=1;locked=0;curveFitting=1;jiggle=2;" vertex="1" parent="txG9URvRlIvG3EIVw_gf-25">
          <mxGeometry x="618.12" y="260" width="60" height="60" as="geometry" />
        </mxCell>
      </root>
    </mxGraphModel>
  </diagram>
</mxfile>
